# xmcd
#
# Track frame offsets:
#   150
#   2387
#   16650
#   29845
#   43000
#   56075
#   67380
#   80960
#   97257
#   110095
#   122222
#   134080
#   147585
#   159032
#   173325
#   185557
#   200995
#   212257
#   227705
#   241377
#   254032
#
# Disc length: 3586 seconds
#
# Revision: 0
# Processed by: cddbd v1.5PL3 Copyright (c) Steve Scherf et al.
# Submitted via: uFREEDB ActiveX Control 1.5
#
DISCID=400e0015
DTITLE=Balaio - Forró
DYEAR=1900
DGENRE=Alternative
TTITLE0=Forró Balaio - Abertura
TTITLE1=Forró Balaio - Sede de Paixão
TTITLE2=Forró Balaio - Pirada
TTITLE3=Forró Balaio - Barba, Cabelo e Bigode
TTITLE4=Forró Balaio - Carinho e Cafune
TTITLE5=Forró Balaio - Meu Cenário
TTITLE6=Forró Balaio - Amor pra mais de mil
TTITLE7=Forró Balaio - Coração roedor
TTITLE8=Forró Balaio - Forró das primas
TTITLE9=Forró Balaio - Oh, Mercadoria
TTITLE10=Forró Balaio - Sem limites pra voar
TTITLE11=Forró Balaio - Diferenças iguais
TTITLE12=Forró Balaio - Quem ama não faz sofre
TTITLE13=Forró Balaio - Escrava da paixão
TTITLE14=Forró Balaio - Quando a gente se casa
TTITLE15=Forró Balaio - Corno modelo
TTITLE16=Forró Balaio - Mulher bonita
TTITLE17=Forró Balaio - Me chama triângulo, me chama pandei
TTITLE18=Forró Balaio - Morena me dá um beijo
TTITLE19=Forró Balaio - Feira dançante
TTITLE20=Forró Balaio - Fazendo amor
EXTD=
EXTT0=
EXTT1=
EXTT2=
EXTT3=
EXTT4=
EXTT5=
EXTT6=
EXTT7=
EXTT8=
EXTT9=
EXTT10=
EXTT11=
EXTT12=
EXTT13=
EXTT14=
EXTT15=
EXTT16=
EXTT17=
EXTT18=
EXTT19=
EXTT20=
PLAYORDER=
